HIERARCHY
ROOT hip
{
	OFFSET 0.000000 0.000000 0.000000 
	CHANNELS 6 Xposition Yposition Zposition Xrotation Zrotation Yrotation
	JOINT abdomen
	{
		OFFSET 0.000000 3.402643 0.000000 
		CHANNELS 3 Xrotation Zrotation Yrotation
		JOINT chest
		{
			OFFSET 0.000000 8.438565 -0.680529 
			CHANNELS 3 Xrotation Zrotation Yrotation
			JOINT neck
			{
				OFFSET 0.000000 10.207942 -0.272212 
				CHANNELS 3 Xrotation Zrotation Yrotation
				JOINT head
				{
					OFFSET 0.000000 3.130431 0.000000 
					CHANNELS 3 Xrotation Zrotation Yrotation
					End Site
					{
						OFFSET 0.000000 3.130435 0.000000 
					}
				}
			}
			JOINT lCollar
			{
				OFFSET 3.470700 6.669187 -0.816635 
				CHANNELS 3 Yrotation Zrotation Xrotation
				JOINT lShldr
				{
					OFFSET 3.198488 0.000000 0.000000 
					CHANNELS 3 Zrotation Yrotation Xrotation
					JOINT lForeArm
					{
						OFFSET 10.139888 0.000000 0.000000 
						CHANNELS 3 Yrotation Zrotation Xrotation
						JOINT lHand
						{
							OFFSET 8.370511 0.000000 0.000000 
							CHANNELS 3 Zrotation Yrotation Xrotation
							End Site
							{
								OFFSET 4.083176 0.000000 0.000000 
							}
						}
					}
				}
			}
			JOINT rCollar
			{
				OFFSET -3.470700 6.669187 -0.816635 
				CHANNELS 3 Yrotation Zrotation Xrotation
				JOINT rShldr
				{
					OFFSET -3.198488 0.000000 0.000000 
					CHANNELS 3 Zrotation Yrotation Xrotation
					JOINT rForeArm
					{
						OFFSET -10.139888 0.000000 0.000000 
						CHANNELS 3 Yrotation Zrotation Xrotation
						JOINT rHand
						{
							OFFSET -8.370511 0.000000 0.000000 
							CHANNELS 3 Zrotation Yrotation Xrotation
							End Site
							{
								OFFSET -4.083176 0.000000 0.000000 
							}
						}
					}
				}
			}
		}
	}
	JOINT lThigh
	{
		OFFSET 5.308129 -1.633274 1.361059 
		CHANNELS 3 Xrotation Zrotation Yrotation
		JOINT lShin
		{
			OFFSET -2.041588 -20.007561 0.000000 
			CHANNELS 3 Xrotation Zrotation Yrotation
			JOINT lFoot
			{
				OFFSET 0.000000 -19.190928 -1.224953 
				CHANNELS 3 Xrotation Yrotation Zrotation
				End Site
				{
					OFFSET 0.000000 -2.449906 4.627600 
				}
			}
		}
	}
	JOINT rThigh
	{
		OFFSET -5.308129 -1.633274 1.361059 
		CHANNELS 3 Xrotation Zrotation Yrotation
		JOINT rShin
		{
			OFFSET 2.041588 -20.007561 0.000000 
			CHANNELS 3 Xrotation Zrotation Yrotation
			JOINT rFoot
			{
				OFFSET 0.000000 -19.190928 -1.224953 
				CHANNELS 3 Xrotation Yrotation Zrotation
				End Site
				{
					OFFSET 0.000000 -2.449906 4.627600 
				}
			}
		}
	}
}
MOTION
Frames: 16
Frame Time: 0.033333
-5.532701 49.808666 -5.407841 9.667969 -11.611328 34.412098 10.117187 0.126953 2.695312 -17.724611 7.441407 3.574219 -2.939453 -9.736328 -16.359076 -6.142578 -0.009766 -16.533201 -0.185547 -2.460938 -0.009766 -90.625000 15.019531 -14.196687 -35.039063 4.707032 68.221855 -13.144531 14.023438 -3.337477 6.289063 -5.673828 -0.078125 80.830078 6.435547 8.144532 42.998047 -4.091796 49.433598 -5.097656 -1.767578 -0.010067 -39.033558 5.408329 -0.064502 14.815633 -1.393704 -1.627933 5.060771 5.700547 -12.945981 -9.940778 2.422295 3.069091 34.538456 0.736624 2.612286 -2.773044 5.895759 12.013437 
-4.143737 49.618469 -4.000209 9.833983 -11.777344 34.277344 9.062499 0.126953 2.695313 -18.076172 7.089843 3.564453 -1.884766 -9.619141 -16.739912 -5.791016 0.507813 -16.904274 -0.361328 -2.460938 -0.019531 -90.341797 16.103516 -16.054689 -34.062500 4.765625 69.589844 -13.330077 14.189453 -3.327683 6.464844 -5.673828 -0.068359 81.718750 4.853515 6.542968 42.978516 -4.199218 50.625000 -4.921875 -1.416016 -0.010005 -39.491051 5.077734 -0.648272 17.982012 -1.406341 -1.956240 7.727783 4.427082 -12.805841 -8.778522 1.924092 2.836002 35.061619 0.589989 2.759314 -0.458083 7.148400 11.915604 
-2.583365 49.603802 -2.545786 10.546875 -11.083985 34.412182 7.822266 -0.820313 2.617188 -17.373047 6.728516 3.750000 -1.699219 -9.394531 -17.482059 -5.253906 0.683594 -17.451056 -0.361328 -2.285156 -0.019531 -90.312500 15.742189 -18.512974 -32.568359 4.785156 71.064201 -13.144531 14.023438 -3.337477 6.289063 -5.498046 -0.097656 82.519531 3.496094 5.244738 42.724609 -4.101563 50.332031 -5.283203 -1.767578 -0.000301 -39.186649 3.319841 -0.852997 20.799667 -1.416535 -2.092625 7.605707 3.301885 -12.399517 -7.095393 0.145925 2.999886 35.779625 0.847702 2.346337 2.883985 8.215137 11.601650 
-1.041056 49.721992 -1.131730 11.416015 -9.677734 35.849609 7.324219 -2.705078 1.679227 -17.724611 6.210938 3.222656 -0.449219 -9.169922 -18.232422 -5.429688 0.859375 -18.144533 -0.185547 -1.757813 -0.009766 -90.136719 14.882812 -21.101009 -30.732422 4.755859 73.320313 -12.851563 14.921873 -3.378906 6.113281 -5.322266 -0.135813 83.798828 1.210938 2.919922 41.787109 -4.257813 51.319084 -5.634766 -2.099644 0.165664 -37.547153 0.155916 -2.493002 22.380957 -1.416708 -1.989519 6.139234 4.758751 -12.501043 -6.084675 -2.096623 0.924479 37.354794 0.208883 2.571595 7.999395 8.973786 10.713304 
0.393366 49.814484 0.236625 10.898438 -8.798827 37.586395 8.056640 -2.939453 0.966797 -18.251953 5.683593 2.686514 -0.107422 -9.775390 -18.671877 -4.716797 1.904297 -18.700848 -0.009766 -1.757813 -0.175781 -89.843750 14.062499 -23.513254 -29.824215 4.921875 76.571426 -12.919922 15.234375 -3.542356 6.113281 -5.498047 -0.116252 84.921875 -1.367188 0.927734 41.093746 -4.160156 51.357422 -6.513672 -2.441406 0.165600 -35.648712 -1.415839 -2.941985 24.306974 -1.581807 -2.676763 4.023586 5.314664 -12.892360 -5.970660 -3.521956 -1.346946 40.696941 0.172368 2.318201 13.876563 10.836127 9.643490 
1.782087 49.884308 1.506912 10.371094 -7.910156 38.134766 8.769531 -3.261719 0.810547 -18.251953 5.683593 2.686514 -0.644531 -10.146485 -18.789064 -4.199219 1.367188 -18.906015 0.166016 -2.119140 -0.175781 -89.677734 12.685547 -24.890434 -29.794922 4.980468 77.215950 -12.617188 15.957031 -3.552003 6.103516 -5.849610 -0.077130 85.039063 -3.837891 0.663410 40.917969 -4.121094 50.791714 -5.283203 -3.154297 0.165480 -33.104630 -2.304675 -2.459738 26.061647 -1.513472 -2.737038 1.791157 5.207749 -12.348650 -7.690220 -5.074479 -3.369857 46.664387 0.000096 2.895255 19.927603 11.457109 7.946324 
3.043888 50.025410 2.634399 11.064453 -7.734375 37.441410 8.408203 -3.339844 0.966797 -19.140627 5.332031 2.851563 0.234375 -10.175780 -18.955082 -4.208984 0.488281 -18.906139 -0.009766 -2.460938 -0.175781 -89.394531 12.744141 -24.101563 -30.449219 4.824219 74.892578 -11.308593 16.455078 -3.229654 6.289063 -5.849609 -0.058594 84.882813 -6.796875 1.357422 40.810547 -4.150391 50.938206 -3.876953 -2.119128 0.000000 -31.547571 -2.822069 -0.931076 26.246338 -1.581918 -2.421114 0.343989 4.497945 -12.239901 -12.283432 -6.503100 -4.121242 53.168423 -0.361255 2.833986 24.041859 11.081590 7.052935 
4.275869 50.116936 3.742370 11.064453 -7.207030 37.441410 8.769531 -3.417969 0.732422 -18.613281 4.980469 2.500000 -0.126953 -10.468750 -18.554691 -4.531250 2.255859 -18.886335 -0.009766 -2.285156 -0.175781 -89.384766 11.513671 -22.177734 -32.050781 4.824218 72.724609 -10.898437 16.328127 -3.024597 5.927735 -5.673828 -0.116222 83.935547 -8.457032 3.037110 41.386719 -4.052734 50.957031 -3.876953 -1.767578 0.000000 -29.149834 -3.524598 -0.682933 26.411106 -1.411217 -2.403105 -1.607498 4.419395 -12.261698 -16.782314 -8.044474 -4.568742 59.818989 -0.528615 3.372696 23.784672 9.473832 7.872321 
5.369415 50.188332 4.856038 10.371094 -6.855468 37.968750 9.492188 -3.261719 0.019531 -18.779297 5.332031 1.797783 0.039063 -10.410156 -18.203125 -4.355469 2.773437 -18.544453 0.166016 -2.119140 -0.175781 -89.355469 10.625001 -19.375000 -33.525391 4.658203 69.647644 -10.537109 16.171877 -3.027344 5.927735 -5.849610 -0.096661 83.671875 -10.527343 3.691406 42.089844 -4.160156 50.917969 -3.691406 -2.646484 -0.010215 -26.620502 -4.053209 -1.037765 26.940338 -1.319424 -2.751095 -3.230521 4.624686 -11.599295 -20.994724 -8.749507 -5.551149 64.924332 -1.054492 3.105177 22.117617 8.717696 8.442543 
6.362708 50.297314 5.955159 9.843750 -7.216797 38.642582 9.667968 -2.470703 -0.771484 -18.779297 5.683593 0.743154 0.751953 -9.999978 -17.921654 -4.882813 2.255860 -18.164061 0.341797 -2.119141 -0.165655 -89.013672 9.609375 -16.492506 -35.048824 4.667969 66.971863 -10.146484 16.396484 -2.858571 5.927735 -5.849610 -0.096661 83.632813 -12.685547 2.812500 42.119141 -4.189453 51.269535 -3.515625 -1.943359 -0.009766 -24.549730 -3.876847 -2.010723 27.134060 -1.415944 -2.442158 -4.616394 4.903106 -11.690639 -25.784208 -8.952462 -6.002508 68.087044 -1.240672 3.294511 20.644253 8.787604 8.623535 
7.320242 50.511147 6.921422 10.195313 -7.207031 39.375000 9.687500 -2.705078 -1.865234 -19.130861 5.859375 -0.136719 1.474609 -9.541016 -18.351229 -5.771485 1.386719 -18.134768 0.166016 -2.646484 -0.175781 -88.154297 8.466797 -14.002468 -36.513668 4.599609 65.585159 -10.302734 16.035154 -2.858631 5.927735 -5.673828 -0.116222 83.632813 -14.892579 0.869141 41.953125 -4.160156 50.703835 -3.515625 -2.470703 -0.009766 -22.171135 -4.373675 -2.543541 25.176426 -1.415939 -2.689660 -4.266006 4.855611 -11.913846 -30.527603 -9.824706 -5.947703 68.795746 -1.248389 3.152960 18.335487 8.787411 9.034625 
8.161402 50.595516 7.948416 9.658202 -7.207030 40.078125 10.566406 -2.470703 -2.734375 -19.658205 6.562500 -1.025391 1.464844 -9.921875 -18.468481 -4.892578 1.728516 -18.515331 0.166016 -2.998047 -0.175781 -87.519531 7.099609 -12.254652 -38.007813 4.521484 64.404297 -10.449219 15.498048 -2.858717 5.927735 -5.673828 -0.116222 84.257813 -16.445311 -2.004716 41.142582 -4.189453 50.733135 -3.349609 -2.646484 -0.010215 -20.436237 -4.032514 -2.791102 25.711626 -1.347593 -2.858891 -4.645040 3.917881 -11.533728 -34.177002 -9.481749 -5.267299 67.543686 -0.898391 3.493457 16.819584 8.272871 9.955191 
8.966438 50.622917 8.987167 9.140625 -7.041016 41.102318 11.435547 -2.314453 -3.837891 -19.482422 7.089843 -2.069107 0.234375 -9.853516 -18.125002 -4.013671 1.718750 -18.202831 0.869141 -2.822266 -0.136238 -87.294922 4.619141 -10.487494 -39.248047 4.453125 63.651585 -10.058594 15.546875 -2.695313 5.751953 -5.849610 -0.117188 84.482422 -17.216797 -3.684529 40.205078 -4.111328 50.694061 -3.691406 -2.822266 -0.010245 -19.393528 -3.857419 -2.741379 27.991369 -1.415855 -2.827717 -4.736664 2.775164 -11.996603 -37.048817 -8.964603 -5.197582 63.680099 -0.888785 3.329128 14.984481 7.298724 9.715987 
9.731956 50.638676 10.018647 8.789063 -7.041015 42.157005 12.314453 -2.470703 -5.087891 -19.658203 8.144532 -2.947835 0.039063 -10.087891 -17.373045 -4.013672 2.070337 -17.675234 0.693359 -2.822266 -0.146484 -87.441406 2.841797 -9.892579 -40.546879 4.472656 62.646481 -9.462890 15.253906 -2.487665 5.927735 -6.025391 -0.077100 84.482422 -18.173826 -5.491326 39.150391 -4.267578 52.666740 -2.822266 -2.822266 -0.010245 -17.800640 -4.023481 -3.771096 28.705383 -1.407357 -2.853730 -4.711358 2.738955 -12.022313 -39.009468 -8.632052 -4.405203 58.420174 -0.458822 3.717105 12.737451 5.945042 10.498944 
10.505234 50.713955 11.022366 8.789063 -7.216797 42.860104 12.646484 -2.314453 -5.791410 -20.185547 8.671876 -3.836418 0.039063 -10.175780 -16.816406 -3.662110 2.236328 -16.992188 0.341797 -2.470701 -0.165595 -87.656250 0.878906 -9.677734 -41.445316 4.462891 62.451172 -10.537109 14.648438 -2.646484 5.927735 -6.542969 -0.018419 84.804688 -19.296875 -7.597657 38.232422 -4.365234 55.302734 -2.285156 -2.460938 0.000000 -16.248152 -3.847276 -4.665121 28.001493 -1.415878 -2.818528 -4.265404 2.415591 -11.949402 -39.703014 -7.909244 -4.265307 49.656708 -0.009919 2.850389 11.175487 4.709630 10.850569 
11.294388 50.709953 12.032510 9.140625 -7.392578 43.387413 12.812500 -2.314368 -6.182240 -20.351561 8.857422 -4.187950 -0.302734 -9.414063 -15.517578 -3.671875 1.357422 -15.585935 0.341797 -2.470701 -0.165595 -87.460938 -1.044922 -9.345881 -42.187500 4.482422 62.080074 -10.605468 14.960937 -2.858807 5.927735 -6.718750 -0.008623 84.628906 -20.742188 -8.144531 37.529297 -4.414062 55.254658 -2.470703 -2.119127 -0.000359 -15.361515 -3.679095 -4.579246 29.069021 -1.411132 -2.543333 -3.722863 1.745833 -12.036079 -40.026978 -7.558572 -3.320645 39.986343 0.351530 2.542289 9.779657 3.792643 11.231907 
